<svg width="136" height="140" viewBox="0 0 136 140" fill="none" xmlns="http://www.w3.org/2000/svg">
<path d="M0.998557 51.5915L131.593 50.6448L135.231 139.432L0.00195312 138.18L0.998557 51.5915Z" fill="#008C8F"/>
<path d="M0.992676 51.5907L62.8047 1.57748C64.0747 0.551111 65.6597 -0.00600262 67.2926 4.87829e-05C68.9254 0.00610019 70.5063 0.574946 71.7686 1.6107L131.593 50.6439" fill="#008C8F"/>
<g opacity="0.3">
<path d="M0.992676 51.5907L62.8047 1.57748C64.0747 0.551111 65.6597 -0.00600262 67.2926 4.87829e-05C68.9254 0.00610019 70.5063 0.574946 71.7686 1.6107L131.593 50.6439" fill="black"/>
</g>
<path d="M0.00182523 138.182C-0.15874 138.026 10.2946 126.61 23.3557 112.685C36.4169 98.76 47.1304 87.5924 47.2965 87.7419C47.4626 87.8914 37.0038 99.3081 23.9426 113.239C10.8815 127.169 0.167927 138.331 0.00182523 138.182Z" fill="#263238"/>
<path d="M135.231 139.43C135.065 139.58 124.883 128.396 112.491 114.454C100.1 100.513 90.1895 89.0848 90.3446 88.9353C90.4996 88.7858 100.693 99.97 113.084 113.917C125.475 127.864 135.408 139.281 135.231 139.43Z" fill="#263238"/>
<g opacity="0.5">
<path d="M131.593 50.6428L66.0108 103.031L0.998535 51.5896" fill="black"/>
</g>
<path d="M7.5709 56.4409L7.37158 15.6573L121.722 14.3008L123.012 57.216L66.0055 102.346L7.5709 56.4409Z" fill="#FAFAFA"/>
<path d="M7.57092 56.4407C7.57092 56.4407 7.94188 56.7175 8.64505 57.2657L11.7456 59.6797L23.5665 68.9094L66.0941 102.252H65.9502L122.94 57.1051L122.884 57.2214C122.641 49.0381 122.38 40.4451 122.115 31.7082C121.943 25.8226 121.766 20.0091 121.594 14.3062L121.738 14.4446L7.38822 15.7458L7.47681 15.6572C7.5211 28.4858 7.55986 38.6789 7.582 45.6662C7.582 49.1599 7.582 51.8508 7.582 53.6724V55.7376C7.582 56.2026 7.582 56.4407 7.582 56.4407C7.582 56.4407 7.582 56.2082 7.582 55.7486C7.582 55.2891 7.582 54.597 7.582 53.6945C7.582 51.8729 7.54325 49.1876 7.51557 45.6995C7.47127 38.701 7.40483 28.5024 7.32178 15.6572V15.5631H7.41037L121.766 14.1623H121.904V14.3062C122.076 20.0035 122.248 25.8171 122.425 31.7026C122.691 40.4451 122.945 49.0326 123.194 57.2214V57.2934L123.139 57.3377L66.1107 102.445L66.0387 102.501L65.9668 102.445L23.4669 68.9925L11.7179 59.7185L8.61737 57.2823C7.91974 56.7286 7.57092 56.4407 7.57092 56.4407Z" fill="#263238"/>
<path d="M103.649 34.8407C103.649 34.9182 86.1584 35.0899 64.5929 35.2172C43.0273 35.3446 25.5312 35.3944 25.5312 35.3113C25.5312 35.2283 43.0162 35.0622 64.5929 34.9293C86.1695 34.7964 103.649 34.7577 103.649 34.8407Z" fill="#263238"/>
<path d="M103.649 46.3601C103.649 46.4432 86.1584 46.6148 64.5929 46.7422C43.0273 46.8695 25.5312 46.9138 25.5312 46.8363C25.5312 46.7588 43.0162 46.5872 64.5929 46.4543C86.1695 46.3214 103.649 46.2826 103.649 46.3601Z" fill="#263238"/>
<path d="M103.649 59.6406C103.649 59.7181 86.1584 59.8898 64.5929 60.0227C43.0273 60.1556 25.5312 60.1943 25.5312 60.1113C25.5312 60.0282 43.0162 59.8621 64.5929 59.7348C86.1695 59.6074 103.649 59.5576 103.649 59.6406Z" fill="#263238"/>
<path d="M103.649 72.9186C103.649 73.0017 86.9669 73.1622 66.3868 73.2896C45.8068 73.4169 29.1247 73.4501 29.1191 73.3726C29.1136 73.2951 45.8013 73.129 66.3868 73.0017C86.9724 72.8743 103.649 72.8411 103.649 72.9186Z" fill="#263238"/>
<path d="M89.0211 84.5728C88.8712 84.5982 88.7191 84.6093 88.5671 84.606L87.2493 84.6448L82.4213 84.7223L66.4811 84.9493C60.2578 85.0545 54.6159 85.0877 50.5353 85.0933H45.7073H44.3895C44.2377 85.096 44.0859 85.0868 43.9355 85.0656C44.0855 85.0402 44.2375 85.0291 44.3895 85.0324L45.7073 84.9991L50.5353 84.9161L66.4756 84.6891C72.6988 84.5839 78.3408 84.5507 82.4158 84.5451H87.2493H88.5671C88.7189 84.5447 88.8705 84.554 89.0211 84.5728Z" fill="#263238"/>
<path d="M74.2996 95.7792C74.2996 95.8567 70.5734 95.9231 65.9945 95.9231C61.4157 95.9231 57.6895 95.8567 57.6895 95.7792C57.6895 95.7016 61.4212 95.6352 65.9945 95.6352C70.5679 95.6352 74.2996 95.6961 74.2996 95.7792Z" fill="#263238"/>
<path d="M112.791 86.732C120.42 86.732 126.605 80.5472 126.605 72.9179C126.605 65.2885 120.42 59.1037 112.791 59.1037C105.161 59.1037 98.9766 65.2885 98.9766 72.9179C98.9766 80.5472 105.161 86.732 112.791 86.732Z" fill="#263238"/>
<path d="M109.197 86.732C116.826 86.732 123.011 80.5472 123.011 72.9179C123.011 65.2885 116.826 59.1037 109.197 59.1037C101.568 59.1037 95.3828 65.2885 95.3828 72.9179C95.3828 80.5472 101.568 86.732 109.197 86.732Z" fill="#455A64"/>
<path d="M110.953 66.491V77.9741H108.832V68.2572H106.401V66.4688L110.953 66.491Z" fill="#EBEBEB"/>
</svg>
