<svg width="56" height="56" viewBox="0 0 56 56" fill="none" xmlns="http://www.w3.org/2000/svg">
<rect x="0.5" y="0.5" width="55" height="55" rx="27.5" fill="white"/>
<rect x="0.5" y="0.5" width="55" height="55" rx="27.5" stroke="#F2F2F2"/>
<path d="M35.9999 21.547C35.9199 21.5337 35.8266 21.5337 35.7466 21.547C33.9066 21.4803 32.4399 19.9737 32.4399 18.107C32.4399 16.2003 33.9733 14.667 35.8799 14.667C37.7866 14.667 39.3199 16.2137 39.3199 18.107C39.3066 19.9737 37.8399 21.4803 35.9999 21.547Z" stroke="#8C4703" stroke-width="1.5" stroke-linecap="round" stroke-linejoin="round"/>
<path d="M34.6266 31.2539C36.4532 31.5605 38.4666 31.2405 39.8799 30.2939C41.7599 29.0405 41.7599 26.9872 39.8799 25.7339C38.4532 24.7872 36.4132 24.4672 34.5865 24.7872" stroke="#8C4703" stroke-width="1.5" stroke-linecap="round" stroke-linejoin="round"/>
<path d="M19.96 21.547C20.04 21.5337 20.1333 21.5337 20.2133 21.547C22.0533 21.4803 23.52 19.9737 23.52 18.107C23.52 16.2003 21.9867 14.667 20.08 14.667C18.1734 14.667 16.64 16.2137 16.64 18.107C16.6533 19.9737 18.12 21.4803 19.96 21.547Z" stroke="#8C4703" stroke-width="1.5" stroke-linecap="round" stroke-linejoin="round"/>
<path d="M21.3334 31.2539C19.5067 31.5605 17.4934 31.2405 16.08 30.2939C14.2 29.0405 14.2 26.9872 16.08 25.7339C17.5067 24.7872 19.5467 24.4672 21.3734 24.7872" stroke="#8C4703" stroke-width="1.5" stroke-linecap="round" stroke-linejoin="round"/>
<path d="M27.9999 31.507C27.9199 31.4936 27.8266 31.4936 27.7466 31.507C25.9066 31.4403 24.4399 29.9336 24.4399 28.067C24.4399 26.1603 25.9733 24.627 27.8799 24.627C29.7866 24.627 31.3199 26.1736 31.3199 28.067C31.3066 29.9336 29.8399 31.4536 27.9999 31.507Z" stroke="#8C4703" stroke-width="1.5" stroke-linecap="round" stroke-linejoin="round"/>
<path d="M24.12 35.7065C22.24 36.9598 22.24 39.0131 24.12 40.2665C26.2533 41.6931 29.7466 41.6931 31.88 40.2665C33.76 39.0131 33.76 36.9598 31.88 35.7065C29.76 34.2932 26.2533 34.2932 24.12 35.7065Z" stroke="#8C4703" stroke-width="1.5" stroke-linecap="round" stroke-linejoin="round"/>
</svg>
