<svg width="57" height="56" viewBox="0 0 57 56" fill="none" xmlns="http://www.w3.org/2000/svg">
<rect x="1.16669" y="0.5" width="55" height="55" rx="27.5" fill="white"/>
<rect x="1.16669" y="0.5" width="55" height="55" rx="27.5" stroke="#F2F2F2"/>
<path d="M23.3334 14.667V18.667" stroke="#800080" stroke-width="1.5" stroke-miterlimit="10" stroke-linecap="round" stroke-linejoin="round"/>
<path d="M34 14.667V18.667" stroke="#800080" stroke-width="1.5" stroke-miterlimit="10" stroke-linecap="round" stroke-linejoin="round"/>
<path d="M22 26.667H32.6667" stroke="#800080" stroke-width="1.5" stroke-miterlimit="10" stroke-linecap="round" stroke-linejoin="round"/>
<path d="M22 32H28.6667" stroke="#800080" stroke-width="1.5" stroke-miterlimit="10" stroke-linecap="round" stroke-linejoin="round"/>
<path d="M32.6667 41.3337H24.6667C18 41.3337 16.6667 38.587 16.6667 33.0937V24.867C16.6667 18.6003 18.8934 16.9203 23.3334 16.667H34C38.44 16.907 40.6667 18.6003 40.6667 24.867V33.3337" stroke="#800080" stroke-width="1.5" stroke-miterlimit="10" stroke-linecap="round" stroke-linejoin="round"/>
<path d="M40.6667 33.333L32.6667 41.333V37.333C32.6667 34.6663 34 33.333 36.6667 33.333H40.6667Z" stroke="#800080" stroke-width="1.5" stroke-linecap="round" stroke-linejoin="round"/>
</svg>
