<svg width="236" height="36" viewBox="0 0 236 36" fill="none" xmlns="http://www.w3.org/2000/svg">
<path d="M16.6282 35.3148C12.1533 35.1623 8.77174 34.1198 6.48346 32.1875C4.19518 30.2043 2.54253 27.9923 1.52552 25.5515C0.508506 23.0598 0 20.5427 0 18.0002C0 15.356 0.483081 12.8134 1.44924 10.3726C2.46626 7.88091 4.1189 5.66891 6.40718 3.73658C8.74631 1.75341 11.6956 0.736398 15.2552 0.685547H44.2401C45.6639 0.685547 46.8589 1.16863 47.825 2.13479C48.842 3.0501 49.3506 4.16882 49.3506 5.49093C49.3506 6.8639 48.842 8.03346 47.825 8.99963C46.8589 9.91494 45.6639 10.3726 44.2401 10.3726H15.7128C14.5941 10.3726 13.6025 10.754 12.7381 11.5167C11.9245 12.2795 11.3143 13.2711 10.9075 14.4915C10.5515 15.7119 10.3735 16.9069 10.3735 18.0765C10.3735 19.3477 10.5515 20.5936 10.9075 21.814C11.3143 23.0344 11.9245 24.026 12.7381 24.7887C13.6025 25.5007 14.5941 25.882 15.7128 25.9329H44.2401C45.6639 25.9329 46.8589 26.3905 47.825 27.3059C48.842 28.2212 49.3506 29.3145 49.3506 30.5857C49.3506 31.9078 48.842 33.0266 47.825 33.9419C46.8589 34.8572 45.6639 35.3148 44.2401 35.3148H16.6282Z" fill="#005153"/>
<path d="M47.1385 20.3647C48.003 19.6528 48.4352 18.8138 48.4352 17.8476C48.4352 16.9323 48.0284 16.1441 47.2148 15.4831C46.4012 14.7712 45.4096 14.4152 44.2401 14.4152H35.5024V16.9587C35.6019 17.1929 35.9112 17.2767 36.0701 17.1631C36.336 16.9421 36.4851 16.8943 36.7514 16.8906C37.3192 17.0042 37.6371 17.5265 37.5917 18.0261C37.569 18.4349 37.2738 18.9345 36.7514 18.9799C36.547 18.9977 36.385 18.961 36.0701 18.7301C35.785 18.6204 35.7182 18.6822 35.5235 18.8075C35.5104 18.8159 35.5024 18.8304 35.5024 18.8459V21.3563H44.2401C45.4096 21.3563 46.3758 21.0258 47.1385 20.3647Z" fill="#005153"/>
<path d="M16.3231 20.3647C17.1367 21.0258 18.1283 21.3563 19.2978 21.3563H28.18V18.8459C28.18 18.8304 28.172 18.8159 28.1589 18.8075C27.9642 18.6822 27.8974 18.6204 27.6122 18.7301C27.2974 18.961 27.1353 18.9977 26.9309 18.9799C26.4086 18.9345 26.1134 18.4349 26.0907 18.0261C26.0453 17.5265 26.3632 17.0042 26.9309 16.8906C27.1973 16.8943 27.3464 16.9421 27.6122 17.1631C27.7712 17.2767 28.0805 17.1929 28.18 16.9587V14.4152H19.2978C18.1283 14.4152 17.1367 14.7457 16.3231 15.4068C15.5094 16.1187 15.1026 16.9323 15.1026 17.8476C15.1026 18.8138 15.5094 19.6528 16.3231 20.3647Z" fill="#005153"/>
<path d="M35.5024 14.4152H28.18V16.9587C28.0805 17.1929 27.7712 17.2767 27.6122 17.1631C27.3464 16.9421 27.1973 16.8943 26.9309 16.8906C26.3632 17.0042 26.0453 17.5265 26.0907 18.0261C26.1134 18.4349 26.4086 18.9345 26.9309 18.9799C27.1353 18.9977 27.2974 18.961 27.6122 18.7301C27.8974 18.6204 27.9642 18.6822 28.1589 18.8075C28.172 18.8159 28.18 18.8304 28.18 18.8459V21.3563H35.5024V18.8459C35.5024 18.8304 35.5104 18.8159 35.5235 18.8075C35.7182 18.6822 35.785 18.6204 36.0701 18.7301C36.385 18.961 36.547 18.9977 36.7514 18.9799C37.2738 18.9345 37.569 18.4349 37.5917 18.0261C37.6371 17.5265 37.3192 17.0042 36.7514 16.8906C36.4851 16.8943 36.336 16.9421 36.0701 17.1631C35.9112 17.2767 35.6019 17.1929 35.5024 16.9587V14.4152Z" fill="#EB7800"/>
<path d="M28.0696 14.415V16.8531C28.0696 16.9049 28.057 16.9568 28.0287 17.0003C27.6609 17.5651 27.2932 16.8559 26.9254 16.8559C26.3152 16.8559 25.9338 17.2372 25.9338 18C25.9338 18.6102 26.3915 18.9916 26.8491 18.9916C27.2084 18.9916 27.5676 18.3825 27.9906 18.758C28.0451 18.8064 28.0696 18.8791 28.0696 18.9519V21.3562" stroke="white" stroke-width="0.21245"/>
<path d="M35.5446 14.415V16.8531C35.5446 16.9049 35.5572 16.9568 35.5855 17.0003C35.9532 17.5651 36.321 16.8559 36.6887 16.8559C37.2989 16.8559 37.6803 17.2372 37.6803 18C37.6803 18.6102 37.2226 18.9916 36.765 18.9916C36.4057 18.9916 36.0465 18.3825 35.6235 18.758C35.569 18.8064 35.5446 18.8791 35.5446 18.9519V21.3562" stroke="white" stroke-width="0.21245"/>
<path d="M60.0593 9.93475H65.7656C67.432 9.93475 68.8793 10.114 70.1075 10.4725C71.3357 10.831 72.3515 11.3455 73.1548 12.0161C73.9648 12.68 74.5656 13.49 74.9573 14.446C75.3557 15.3954 75.5549 16.4643 75.5549 17.6526C75.5549 18.7813 75.359 19.8269 74.9673 20.7896C74.5756 21.7456 73.9781 22.5755 73.1748 23.2792C72.3714 23.9763 71.3557 24.5241 70.1274 24.9224C68.8992 25.3141 67.4519 25.51 65.7855 25.51L60.0593 25.5V9.93475ZM66.5423 22.7714C67.4851 22.7714 68.3117 22.6518 69.022 22.4128C69.7324 22.1672 70.3233 21.822 70.7947 21.3771C71.2727 20.9323 71.6312 20.3946 71.8702 19.7639C72.1092 19.1332 72.2287 18.4294 72.2287 17.6526C72.2287 16.8892 72.1092 16.202 71.8702 15.5912C71.6312 14.9738 71.2727 14.4526 70.7947 14.0277C70.3233 13.5962 69.7324 13.2642 69.022 13.0319C68.3117 12.7995 67.4851 12.6833 66.5423 12.6833H63.2162V22.7714H66.5423ZM78.7038 8.97872C79.0556 8.97872 79.3776 9.03516 79.6697 9.14802C79.9685 9.26088 80.2241 9.42686 80.4366 9.64595C80.649 9.8584 80.815 10.1173 80.9345 10.4227C81.054 10.7281 81.1137 11.0733 81.1137 11.4584C81.1137 12.3281 80.815 13.1613 80.2175 13.958C79.6266 14.7481 78.7635 15.4518 77.6282 16.0692L76.5328 14.5057C76.8315 14.3464 77.0938 14.1904 77.3195 14.0377C77.5519 13.885 77.7511 13.729 77.917 13.5696C78.0896 13.4103 78.2357 13.2476 78.3552 13.0817C78.4814 12.909 78.5942 12.7265 78.6938 12.5339C78.3685 12.5339 78.073 12.4875 77.8075 12.3945C77.5486 12.3016 77.3228 12.1754 77.1303 12.0161C76.9444 11.8501 76.7984 11.6609 76.6921 11.4484C76.5925 11.2294 76.5427 10.997 76.5427 10.7513C76.5427 10.5057 76.5925 10.2767 76.6921 10.0642C76.7984 9.84512 76.9444 9.65591 77.1303 9.49657C77.3228 9.33723 77.5519 9.21109 77.8174 9.11814C78.083 9.0252 78.3784 8.97872 78.7038 8.97872ZM83.1871 9.93475H96.442V12.7032H86.344V15.8103H95.2868V18.4095H86.344V22.7415H96.6511V25.5H83.1871V9.93475ZM96.1253 13.7389H99.5411L102.598 20.8095L103.395 22.7913L104.192 20.8095L107.249 13.7389H110.665L105.098 25.5H101.692L96.1253 13.7389ZM110.129 19.5846C110.129 18.7879 110.292 18.0277 110.617 17.3041C110.942 16.5738 111.41 15.9298 112.021 15.3721C112.632 14.8144 113.379 14.3696 114.262 14.0377C115.151 13.7057 116.161 13.5398 117.289 13.5398C118.411 13.5398 119.42 13.709 120.317 14.0476C121.22 14.3796 121.983 14.8377 122.607 15.4219C123.238 16.0062 123.719 16.6933 124.051 17.4833C124.39 18.2734 124.559 19.1199 124.559 20.0228C124.559 20.1356 124.556 20.2585 124.549 20.3913C124.549 20.5174 124.542 20.6336 124.529 20.7398H113.415C113.542 21.0917 113.744 21.4137 114.023 21.7058C114.308 21.9979 114.664 22.2502 115.088 22.4626C115.513 22.6751 116.005 22.8411 116.562 22.9606C117.12 23.0734 117.737 23.1299 118.415 23.1299C119.092 23.1299 119.766 23.0601 120.436 22.9207C121.107 22.7747 121.747 22.5921 122.358 22.373L123.354 24.6236C122.969 24.8029 122.577 24.9622 122.179 25.1017C121.787 25.2344 121.376 25.3473 120.944 25.4402C120.519 25.5266 120.071 25.5929 119.6 25.6394C119.135 25.6859 118.644 25.7091 118.126 25.7091C116.805 25.7091 115.646 25.5498 114.65 25.2311C113.654 24.9124 112.821 24.4776 112.151 23.9265C111.48 23.3755 110.976 22.7282 110.637 21.9846C110.298 21.241 110.129 20.441 110.129 19.5846ZM121.432 18.4394C121.326 18.1141 121.16 17.812 120.934 17.5331C120.715 17.2477 120.439 17.002 120.108 16.7962C119.776 16.5838 119.391 16.4178 118.952 16.2983C118.514 16.1788 118.033 16.119 117.508 16.119C116.951 16.119 116.443 16.1821 115.985 16.3082C115.527 16.4344 115.125 16.6037 114.78 16.8161C114.434 17.0286 114.146 17.2742 113.913 17.5531C113.688 17.8319 113.522 18.1273 113.415 18.4394H121.432ZM125.696 13.7489H128.644V14.7447C129.427 14.2999 130.174 13.9879 130.885 13.8086C131.602 13.6294 132.302 13.5398 132.986 13.5398C133.882 13.5398 134.712 13.6725 135.476 13.9381C136.239 14.197 136.9 14.5854 137.457 15.1032C138.015 15.6211 138.45 16.2684 138.762 17.0452C139.081 17.8153 139.24 18.7083 139.24 19.724V25.5H136.302V20.202C136.302 19.558 136.209 18.9838 136.023 18.4792C135.844 17.968 135.582 17.5398 135.237 17.1945C134.898 16.8427 134.483 16.5771 133.992 16.3979C133.507 16.212 132.963 16.119 132.359 16.119C132.04 16.119 131.711 16.1522 131.373 16.2186C131.041 16.285 130.712 16.3813 130.387 16.5074C130.068 16.6269 129.759 16.7796 129.461 16.9655C129.162 17.1448 128.89 17.3506 128.644 17.5829V25.5H125.696V13.7489ZM142.598 15.9597H139.76V13.7489H142.598V10.0941H145.546V13.7489H148.384V15.9597H145.546V25.5H142.598V15.9597Z" fill="#005153"/>
<path d="M149.342 9.93475H152.499L158.155 15.6111L163.812 9.93475H166.969V25.5H163.812V14.3066L158.155 19.7539L152.499 14.3066V25.5H149.342V9.93475ZM168.435 21.7954C168.435 21.2311 168.557 20.7166 168.803 20.2518C169.049 19.7871 169.417 19.3888 169.908 19.0568C170.4 18.7182 171.01 18.4593 171.741 18.28C172.478 18.0941 173.334 18.0012 174.31 18.0012C175.034 18.0012 175.794 18.0543 176.591 18.1605C177.394 18.2668 178.22 18.4294 179.07 18.6485C179.037 18.2767 178.924 17.9348 178.732 17.6228C178.539 17.3041 178.27 17.0319 177.925 16.8062C177.586 16.5738 177.175 16.3945 176.69 16.2684C176.212 16.1423 175.668 16.0792 175.057 16.0792C174.725 16.0792 174.36 16.0991 173.962 16.1389C173.563 16.1788 173.152 16.2385 172.727 16.3182C172.302 16.3979 171.88 16.4974 171.462 16.617C171.05 16.7365 170.665 16.8792 170.307 17.0452L169.41 14.6252C169.855 14.4659 170.33 14.3198 170.835 14.1871C171.346 14.0543 171.867 13.9414 172.398 13.8485C172.929 13.7489 173.46 13.6725 173.991 13.6194C174.523 13.5663 175.037 13.5398 175.535 13.5398C177.732 13.5398 179.366 14.1008 180.435 15.2228C181.503 16.3447 182.038 18.0643 182.038 20.3813V25.5H179.09V24.3946C178.785 24.5739 178.45 24.7431 178.084 24.9025C177.726 25.0618 177.334 25.2012 176.909 25.3207C176.484 25.4402 176.026 25.5332 175.535 25.5996C175.05 25.6726 174.536 25.7091 173.991 25.7091C173.075 25.7091 172.269 25.6095 171.571 25.4104C170.881 25.2112 170.303 24.9357 169.839 24.5838C169.374 24.2319 169.022 23.8203 168.783 23.3489C168.551 22.8709 168.435 22.3531 168.435 21.7954ZM171.542 21.6958C171.542 21.8884 171.591 22.0743 171.691 22.2535C171.791 22.4261 171.95 22.5821 172.169 22.7216C172.388 22.8543 172.667 22.9639 173.005 23.0502C173.351 23.1299 173.766 23.1697 174.25 23.1697C174.768 23.1697 175.269 23.1232 175.754 23.0303C176.239 22.9373 176.69 22.8145 177.108 22.6618C177.527 22.5091 177.905 22.3332 178.244 22.134C178.582 21.9348 178.864 21.729 179.09 21.5166V20.9987C178.639 20.8726 178.191 20.7664 177.746 20.68C177.308 20.5937 176.886 20.5274 176.481 20.4809C176.083 20.4278 175.704 20.3913 175.346 20.3713C174.994 20.3514 174.685 20.3415 174.42 20.3415C173.869 20.3415 173.41 20.378 173.045 20.451C172.68 20.524 172.385 20.6236 172.159 20.7498C171.933 20.8693 171.774 21.012 171.681 21.178C171.588 21.344 171.542 21.5166 171.542 21.6958ZM185.675 15.9597H182.837V13.7489H185.675V10.0941H188.623V13.7489H191.461V15.9597H188.623V25.5H185.675V15.9597ZM191.333 19.6543C191.333 18.7912 191.489 17.9879 191.801 17.2443C192.12 16.4941 192.581 15.8468 193.186 15.3024C193.796 14.7514 194.54 14.3198 195.416 14.0078C196.299 13.6958 197.305 13.5398 198.434 13.5398C198.925 13.5398 199.42 13.5696 199.918 13.6294C200.415 13.6891 200.893 13.7754 201.352 13.8883C201.816 13.9945 202.251 14.124 202.656 14.2767C203.061 14.4227 203.413 14.5854 203.712 14.7647L202.347 16.9854C201.703 16.6867 201.093 16.4676 200.515 16.3282C199.944 16.1887 199.363 16.119 198.772 16.119C198.095 16.119 197.488 16.2086 196.95 16.3879C196.412 16.5605 195.954 16.8062 195.576 17.1248C195.204 17.4369 194.918 17.8087 194.719 18.2402C194.527 18.6651 194.43 19.1298 194.43 19.6344C194.43 20.139 194.533 20.607 194.739 21.0386C194.952 21.4635 195.247 21.8319 195.625 22.144C196.01 22.4494 196.472 22.6917 197.01 22.8709C197.554 23.0436 198.158 23.1299 198.822 23.1299C199.552 23.1299 200.24 23.027 200.884 22.8211C201.534 22.6153 202.138 22.3398 202.696 21.9946L204.06 24.2153C203.708 24.4278 203.327 24.627 202.915 24.8129C202.503 24.9921 202.062 25.1481 201.591 25.2809C201.126 25.4137 200.635 25.5166 200.117 25.5896C199.606 25.6693 199.074 25.7091 198.523 25.7091C197.401 25.7091 196.396 25.5564 195.506 25.251C194.616 24.9456 193.863 24.5241 193.245 23.9863C192.628 23.4419 192.153 22.8012 191.821 22.0643C191.496 21.3274 191.333 20.524 191.333 19.6543ZM205.198 8.98868H208.145V14.6452C208.763 14.3066 209.45 14.0377 210.207 13.8385C210.97 13.6393 211.77 13.5398 212.607 13.5398C213.576 13.5398 214.446 13.6825 215.216 13.968C215.993 14.2534 216.65 14.6651 217.188 15.2028C217.725 15.734 218.137 16.3813 218.423 17.1448C218.715 17.9082 218.861 18.768 218.861 19.724V25.5H215.923V19.8435C215.923 19.2858 215.833 18.778 215.654 18.3199C215.475 17.8551 215.213 17.4568 214.867 17.1248C214.522 16.7929 214.101 16.5373 213.603 16.358C213.111 16.1721 212.554 16.0792 211.93 16.0792C211.179 16.0792 210.482 16.1987 209.838 16.4377C209.194 16.6767 208.63 16.9788 208.145 17.3439V25.5H205.198V8.98868ZM219.57 21.7954C219.57 21.2311 219.693 20.7166 219.938 20.2518C220.184 19.7871 220.552 19.3888 221.044 19.0568C221.535 18.7182 222.146 18.4593 222.876 18.28C223.613 18.0941 224.469 18.0012 225.445 18.0012C226.169 18.0012 226.929 18.0543 227.726 18.1605C228.529 18.2668 229.356 18.4294 230.206 18.6485C230.172 18.2767 230.059 17.9348 229.867 17.6228C229.674 17.3041 229.406 17.0319 229.06 16.8062C228.722 16.5738 228.31 16.3945 227.825 16.2684C227.347 16.1423 226.803 16.0792 226.192 16.0792C225.86 16.0792 225.495 16.0991 225.097 16.1389C224.698 16.1788 224.287 16.2385 223.862 16.3182C223.437 16.3979 223.015 16.4974 222.597 16.617C222.186 16.7365 221.801 16.8792 221.442 17.0452L220.546 14.6252C220.991 14.4659 221.465 14.3198 221.97 14.1871C222.481 14.0543 223.002 13.9414 223.533 13.8485C224.064 13.7489 224.596 13.6725 225.127 13.6194C225.658 13.5663 226.172 13.5398 226.67 13.5398C228.868 13.5398 230.501 14.1008 231.57 15.2228C232.639 16.3447 233.173 18.0643 233.173 20.3813V25.5H230.225V24.3946C229.92 24.5739 229.585 24.7431 229.22 24.9025C228.861 25.0618 228.469 25.2012 228.045 25.3207C227.62 25.4402 227.162 25.5332 226.67 25.5996C226.186 25.6726 225.671 25.7091 225.127 25.7091C224.21 25.7091 223.404 25.6095 222.707 25.4104C222.016 25.2112 221.439 24.9357 220.974 24.5838C220.509 24.2319 220.157 23.8203 219.918 23.3489C219.686 22.8709 219.57 22.3531 219.57 21.7954ZM222.677 21.6958C222.677 21.8884 222.727 22.0743 222.826 22.2535C222.926 22.4261 223.085 22.5821 223.304 22.7216C223.523 22.8543 223.802 22.9639 224.141 23.0502C224.486 23.1299 224.901 23.1697 225.386 23.1697C225.903 23.1697 226.405 23.1232 226.889 23.0303C227.374 22.9373 227.825 22.8145 228.244 22.6618C228.662 22.5091 229.04 22.3332 229.379 22.134C229.718 21.9348 230 21.729 230.225 21.5166V20.9987C229.774 20.8726 229.326 20.7664 228.881 20.68C228.443 20.5937 228.021 20.5274 227.616 20.4809C227.218 20.4278 226.84 20.3913 226.481 20.3713C226.129 20.3514 225.82 20.3415 225.555 20.3415C225.004 20.3415 224.546 20.378 224.181 20.451C223.815 20.524 223.52 20.6236 223.294 20.7498C223.069 20.8693 222.909 21.012 222.816 21.178C222.723 21.344 222.677 21.5166 222.677 21.6958Z" fill="#EB7800"/>
</svg>
