<svg width="236" height="35" viewBox="0 0 236 35" fill="none" xmlns="http://www.w3.org/2000/svg">
<path d="M16.6282 34.6293C12.1533 34.4767 8.77174 33.4343 6.48346 31.502C4.19518 29.5188 2.54253 27.3068 1.52552 24.866C0.508506 22.3743 0 19.8572 0 17.3146C0 14.6704 0.483081 12.1279 1.44924 9.68705C2.46626 7.19536 4.1189 4.98336 6.40718 3.05104C8.74631 1.06786 11.6956 0.0508506 15.2552 0H44.2401C45.6639 0 46.8589 0.483081 47.825 1.44924C48.842 2.36455 49.3506 3.48327 49.3506 4.80539C49.3506 6.17835 48.842 7.34792 47.825 8.31408C46.8589 9.22939 45.6639 9.68705 44.2401 9.68705H15.7128C14.5941 9.68705 13.6025 10.0684 12.7381 10.8312C11.9245 11.5939 11.3143 12.5855 10.9075 13.8059C10.5515 15.0264 10.3735 16.2214 10.3735 17.3909C10.3735 18.6622 10.5515 19.908 10.9075 21.1284C11.3143 22.3489 11.9245 23.3404 12.7381 24.1032C13.6025 24.8151 14.5941 25.1965 15.7128 25.2473H44.2401C45.6639 25.2473 46.8589 25.705 47.825 26.6203C48.842 27.5356 49.3506 28.6289 49.3506 29.9002C49.3506 31.2223 48.842 32.341 47.825 33.2563C46.8589 34.1716 45.6639 34.6293 44.2401 34.6293H16.6282Z" fill="white"/>
<path d="M47.1385 19.6792C48.003 18.9673 48.4352 18.1283 48.4352 17.1621C48.4352 16.2468 48.0284 15.4586 47.2148 14.7975C46.4012 14.0856 45.4096 13.7297 44.2401 13.7297H35.5024V16.2732C35.6019 16.5073 35.9112 16.5911 36.0701 16.4776C36.336 16.2565 36.4851 16.2087 36.7514 16.2051C37.3192 16.3186 37.6371 16.8409 37.5917 17.3406C37.569 17.7493 37.2738 18.249 36.7514 18.2944C36.547 18.3122 36.385 18.2754 36.0701 18.0446C35.785 17.9349 35.7182 17.9967 35.5235 18.1219C35.5104 18.1304 35.5024 18.1448 35.5024 18.1604V20.6708H44.2401C45.4096 20.6708 46.3758 20.3403 47.1385 19.6792Z" fill="white"/>
<path d="M16.3231 19.6792C17.1367 20.3403 18.1283 20.6708 19.2978 20.6708H28.18V18.1604C28.18 18.1448 28.172 18.1304 28.1589 18.1219C27.9642 17.9967 27.8974 17.9349 27.6122 18.0446C27.2974 18.2754 27.1353 18.3122 26.9309 18.2944C26.4086 18.249 26.1134 17.7493 26.0907 17.3406C26.0453 16.8409 26.3632 16.3186 26.9309 16.2051C27.1973 16.2087 27.3464 16.2565 27.6122 16.4776C27.7712 16.5911 28.0805 16.5073 28.18 16.2732V13.7297H19.2978C18.1283 13.7297 17.1367 14.0602 16.3231 14.7213C15.5094 15.4332 15.1026 16.2468 15.1026 17.1621C15.1026 18.1283 15.5094 18.9673 16.3231 19.6792Z" fill="white"/>
<path d="M35.5024 13.7297H28.18V16.2732C28.0805 16.5073 27.7712 16.5911 27.6122 16.4776C27.3464 16.2565 27.1973 16.2087 26.9309 16.2051C26.3632 16.3186 26.0453 16.8409 26.0907 17.3406C26.1134 17.7493 26.4086 18.249 26.9309 18.2944C27.1353 18.3122 27.2974 18.2754 27.6122 18.0446C27.8974 17.9349 27.9642 17.9967 28.1589 18.1219C28.172 18.1304 28.18 18.1448 28.18 18.1604V20.6708H35.5024V18.1604C35.5024 18.1448 35.5104 18.1304 35.5235 18.1219C35.7182 17.9967 35.785 17.9349 36.0701 18.0446C36.385 18.2754 36.547 18.3122 36.7514 18.2944C37.2738 18.249 37.569 17.7493 37.5917 17.3406C37.6371 16.8409 37.3192 16.3186 36.7514 16.2051C36.4851 16.2087 36.336 16.2565 36.0701 16.4776C35.9112 16.5911 35.6019 16.5073 35.5024 16.2732V13.7297Z" fill="#EB7800"/>
<path d="M28.0696 13.7295V16.1675C28.0696 16.2194 28.057 16.2713 28.0287 16.3147C27.6609 16.8795 27.2932 16.1703 26.9254 16.1703C26.3152 16.1703 25.9338 16.5517 25.9338 17.3145C25.9338 17.9247 26.3915 18.3061 26.8491 18.3061C27.2084 18.3061 27.5676 17.6969 27.9906 18.0725C28.0451 18.1209 28.0696 18.1935 28.0696 18.2664V20.6706" stroke="#005F61" stroke-width="0.21245"/>
<path d="M35.5446 13.7295V16.1675C35.5446 16.2194 35.5572 16.2713 35.5855 16.3147C35.9532 16.8795 36.321 16.1703 36.6887 16.1703C37.2989 16.1703 37.6803 16.5517 37.6803 17.3145C37.6803 17.9247 37.2226 18.3061 36.765 18.3061C36.4057 18.3061 36.0465 17.6969 35.6235 18.0725C35.569 18.1209 35.5446 18.1935 35.5446 18.2664V20.6706" stroke="#005F61" stroke-width="0.21245"/>
<path d="M60.0593 9.2492H65.7656C67.432 9.2492 68.8793 9.42845 70.1075 9.78696C71.3357 10.1455 72.3515 10.66 73.1548 11.3305C73.9648 11.9944 74.5656 12.8044 74.9573 13.7604C75.3557 14.7098 75.5549 15.7787 75.5549 16.9671C75.5549 18.0957 75.359 19.1414 74.9673 20.104C74.5756 21.0601 73.9781 21.89 73.1748 22.5937C72.3714 23.2908 71.3557 23.8385 70.1274 24.2369C68.8992 24.6286 67.4519 24.8244 65.7855 24.8244L60.0593 24.8145V9.2492ZM66.5423 22.0858C67.4851 22.0858 68.3117 21.9663 69.022 21.7273C69.7324 21.4816 70.3233 21.1364 70.7947 20.6916C71.2727 20.2468 71.6312 19.709 71.8702 19.0783C72.1092 18.4476 72.2287 17.7439 72.2287 16.9671C72.2287 16.2036 72.1092 15.5165 71.8702 14.9057C71.6312 14.2882 71.2727 13.7671 70.7947 13.3422C70.3233 12.9106 69.7324 12.5787 69.022 12.3463C68.3117 12.1139 67.4851 11.9978 66.5423 11.9978H63.2162V22.0858H66.5423ZM78.7038 8.29318C79.0556 8.29318 79.3776 8.34961 79.6697 8.46247C79.9685 8.57534 80.2241 8.74131 80.4366 8.9604C80.649 9.17285 80.815 9.43177 80.9345 9.73717C81.054 10.0426 81.1137 10.3878 81.1137 10.7729C81.1137 11.6426 80.815 12.4758 80.2175 13.2725C79.6266 14.0625 78.7635 14.7663 77.6282 15.3837L76.5328 13.8202C76.8315 13.6608 77.0938 13.5048 77.3195 13.3521C77.5519 13.1994 77.7511 13.0434 77.917 12.8841C78.0896 12.7247 78.2357 12.5621 78.3552 12.3961C78.4814 12.2235 78.5942 12.0409 78.6938 11.8484C78.3685 11.8484 78.073 11.8019 77.8075 11.709C77.5486 11.616 77.3228 11.4899 77.1303 11.3305C76.9444 11.1646 76.7984 10.9754 76.6921 10.7629C76.5925 10.5438 76.5427 10.3114 76.5427 10.0658C76.5427 9.82016 76.5925 9.59111 76.6921 9.37866C76.7984 9.15957 76.9444 8.97036 77.1303 8.81102C77.3228 8.65169 77.5519 8.52554 77.8174 8.4326C78.083 8.33965 78.3784 8.29318 78.7038 8.29318ZM83.1871 9.2492H96.442V12.0177H86.344V15.1248H95.2868V17.7239H86.344V22.0559H96.6511V24.8145H83.1871V9.2492ZM96.1253 13.0534H99.5411L102.598 20.124L103.395 22.1057L104.192 20.124L107.249 13.0534H110.665L105.098 24.8145H101.692L96.1253 13.0534ZM110.129 18.8991C110.129 18.1024 110.292 17.3422 110.617 16.6185C110.942 15.8882 111.41 15.2443 112.021 14.6866C112.632 14.1289 113.379 13.6841 114.262 13.3521C115.151 13.0202 116.161 12.8542 117.289 12.8542C118.411 12.8542 119.42 13.0235 120.317 13.3621C121.22 13.694 121.983 14.1521 122.607 14.7364C123.238 15.3206 123.719 16.0078 124.051 16.7978C124.39 17.5878 124.559 18.4343 124.559 19.3372C124.559 19.4501 124.556 19.5729 124.549 19.7057C124.549 19.8318 124.542 19.948 124.529 20.0543H113.415C113.542 20.4061 113.744 20.7281 114.023 21.0202C114.308 21.3124 114.664 21.5646 115.088 21.7771C115.513 21.9895 116.005 22.1555 116.562 22.275C117.12 22.3879 117.737 22.4443 118.415 22.4443C119.092 22.4443 119.766 22.3746 120.436 22.2352C121.107 22.0891 121.747 21.9065 122.358 21.6875L123.354 23.9381C122.969 24.1174 122.577 24.2767 122.179 24.4161C121.787 24.5489 121.376 24.6618 120.944 24.7547C120.519 24.841 120.071 24.9074 119.6 24.9539C119.135 25.0003 118.644 25.0236 118.126 25.0236C116.805 25.0236 115.646 24.8642 114.65 24.5456C113.654 24.2269 112.821 23.792 112.151 23.241C111.48 22.69 110.976 22.0426 110.637 21.2991C110.298 20.5555 110.129 19.7555 110.129 18.8991ZM121.432 17.7538C121.326 17.4285 121.16 17.1264 120.934 16.8476C120.715 16.5621 120.439 16.3165 120.108 16.1107C119.776 15.8982 119.391 15.7322 118.952 15.6127C118.514 15.4932 118.033 15.4335 117.508 15.4335C116.951 15.4335 116.443 15.4965 115.985 15.6227C115.527 15.7488 115.125 15.9181 114.78 16.1306C114.434 16.343 114.146 16.5887 113.913 16.8675C113.688 17.1464 113.522 17.4418 113.415 17.7538H121.432ZM125.696 13.0633H128.644V14.0592C129.427 13.6144 130.174 13.3023 130.885 13.1231C131.602 12.9438 132.302 12.8542 132.986 12.8542C133.882 12.8542 134.712 12.987 135.476 13.2525C136.239 13.5115 136.9 13.8999 137.457 14.4177C138.015 14.9355 138.45 15.5829 138.762 16.3596C139.081 17.1298 139.24 18.0227 139.24 19.0385V24.8145H136.302V19.5165C136.302 18.8725 136.209 18.2982 136.023 17.7937C135.844 17.2825 135.582 16.8542 135.237 16.509C134.898 16.1571 134.483 15.8916 133.992 15.7123C133.507 15.5264 132.963 15.4335 132.359 15.4335C132.04 15.4335 131.711 15.4667 131.373 15.5331C131.041 15.5995 130.712 15.6957 130.387 15.8219C130.068 15.9414 129.759 16.0941 129.461 16.28C129.162 16.4592 128.89 16.665 128.644 16.8974V24.8145H125.696V13.0633ZM142.598 15.2741H139.76V13.0633H142.598V9.40854H145.546V13.0633H148.384V15.2741H145.546V24.8145H142.598V15.2741Z" fill="white"/>
<path d="M149.342 9.2492H152.499L158.155 14.9256L163.812 9.2492H166.969V24.8145H163.812V13.621L158.155 19.0684L152.499 13.621V24.8145H149.342V9.2492ZM168.435 21.1099C168.435 20.5455 168.557 20.031 168.803 19.5663C169.049 19.1016 169.417 18.7032 169.908 18.3713C170.4 18.0327 171.01 17.7737 171.741 17.5945C172.478 17.4086 173.334 17.3156 174.31 17.3156C175.034 17.3156 175.794 17.3688 176.591 17.475C177.394 17.5812 178.22 17.7439 179.07 17.963C179.037 17.5912 178.924 17.2493 178.732 16.9372C178.539 16.6185 178.27 16.3463 177.925 16.1206C177.586 15.8882 177.175 15.709 176.69 15.5829C176.212 15.4567 175.668 15.3936 175.057 15.3936C174.725 15.3936 174.36 15.4136 173.962 15.4534C173.563 15.4932 173.152 15.553 172.727 15.6326C172.302 15.7123 171.88 15.8119 171.462 15.9314C171.05 16.0509 170.665 16.1936 170.307 16.3596L169.41 13.9397C169.855 13.7804 170.33 13.6343 170.835 13.5015C171.346 13.3687 171.867 13.2559 172.398 13.1629C172.929 13.0633 173.46 12.987 173.991 12.9339C174.523 12.8808 175.037 12.8542 175.535 12.8542C177.732 12.8542 179.366 13.4152 180.435 14.5372C181.503 15.6592 182.038 17.3787 182.038 19.6957V24.8145H179.09V23.7091C178.785 23.8883 178.45 24.0576 178.084 24.2169C177.726 24.3763 177.334 24.5157 176.909 24.6352C176.484 24.7547 176.026 24.8476 175.535 24.914C175.05 24.9871 174.536 25.0236 173.991 25.0236C173.075 25.0236 172.269 24.924 171.571 24.7248C170.881 24.5257 170.303 24.2501 169.839 23.8983C169.374 23.5464 169.022 23.1348 168.783 22.6634C168.551 22.1854 168.435 21.6675 168.435 21.1099ZM171.542 21.0103C171.542 21.2028 171.591 21.3887 171.691 21.568C171.791 21.7406 171.95 21.8966 172.169 22.036C172.388 22.1688 172.667 22.2783 173.005 22.3646C173.351 22.4443 173.766 22.4841 174.25 22.4841C174.768 22.4841 175.269 22.4377 175.754 22.3447C176.239 22.2518 176.69 22.129 177.108 21.9763C177.527 21.8236 177.905 21.6476 178.244 21.4485C178.582 21.2493 178.864 21.0435 179.09 20.831V20.3132C178.639 20.187 178.191 20.0808 177.746 19.9945C177.308 19.9082 176.886 19.8418 176.481 19.7953C176.083 19.7422 175.704 19.7057 175.346 19.6858C174.994 19.6659 174.685 19.6559 174.42 19.6559C173.869 19.6559 173.41 19.6924 173.045 19.7655C172.68 19.8385 172.385 19.9381 172.159 20.0642C171.933 20.1837 171.774 20.3265 171.681 20.4924C171.588 20.6584 171.542 20.831 171.542 21.0103ZM185.675 15.2741H182.837V13.0633H185.675V9.40854H188.623V13.0633H191.461V15.2741H188.623V24.8145H185.675V15.2741ZM191.333 18.9688C191.333 18.1057 191.489 17.3024 191.801 16.5588C192.12 15.8086 192.581 15.1613 193.186 14.6169C193.796 14.0658 194.54 13.6343 195.416 13.3223C196.299 13.0102 197.305 12.8542 198.434 12.8542C198.925 12.8542 199.42 12.8841 199.918 12.9438C200.415 13.0036 200.893 13.0899 201.352 13.2028C201.816 13.309 202.251 13.4384 202.656 13.5911C203.061 13.7372 203.413 13.8999 203.712 14.0791L202.347 16.2999C201.703 16.0011 201.093 15.782 200.515 15.6426C199.944 15.5032 199.363 15.4335 198.772 15.4335C198.095 15.4335 197.488 15.5231 196.95 15.7024C196.412 15.875 195.954 16.1206 195.576 16.4393C195.204 16.7513 194.918 17.1231 194.719 17.5547C194.527 17.9796 194.43 18.4443 194.43 18.9489C194.43 19.4534 194.533 19.9215 194.739 20.353C194.952 20.7779 195.247 21.1464 195.625 21.4584C196.01 21.7638 196.472 22.0061 197.01 22.1854C197.554 22.358 198.158 22.4443 198.822 22.4443C199.552 22.4443 200.24 22.3414 200.884 22.1356C201.534 21.9298 202.138 21.6543 202.696 21.309L204.06 23.5298C203.708 23.7422 203.327 23.9414 202.915 24.1273C202.503 24.3066 202.062 24.4626 201.591 24.5954C201.126 24.7281 200.635 24.8311 200.117 24.9041C199.606 24.9837 199.074 25.0236 198.523 25.0236C197.401 25.0236 196.396 24.8709 195.506 24.5655C194.616 24.2601 193.863 23.8385 193.245 23.3007C192.628 22.7563 192.153 22.1157 191.821 21.3787C191.496 20.6418 191.333 19.8385 191.333 18.9688ZM205.198 8.30313H208.145V13.9596C208.763 13.621 209.45 13.3521 210.207 13.153C210.97 12.9538 211.77 12.8542 212.607 12.8542C213.576 12.8542 214.446 12.9969 215.216 13.2824C215.993 13.5679 216.65 13.9795 217.188 14.5173C217.725 15.0484 218.137 15.6957 218.423 16.4592C218.715 17.2227 218.861 18.0825 218.861 19.0385V24.8145H215.923V19.158C215.923 18.6003 215.833 18.0924 215.654 17.6343C215.475 17.1696 215.213 16.7712 214.867 16.4393C214.522 16.1073 214.101 15.8517 213.603 15.6725C213.111 15.4866 212.554 15.3936 211.93 15.3936C211.179 15.3936 210.482 15.5131 209.838 15.7521C209.194 15.9912 208.63 16.2932 208.145 16.6584V24.8145H205.198V8.30313ZM219.57 21.1099C219.57 20.5455 219.693 20.031 219.938 19.5663C220.184 19.1016 220.552 18.7032 221.044 18.3713C221.535 18.0327 222.146 17.7737 222.876 17.5945C223.613 17.4086 224.469 17.3156 225.445 17.3156C226.169 17.3156 226.929 17.3688 227.726 17.475C228.529 17.5812 229.356 17.7439 230.206 17.963C230.172 17.5912 230.059 17.2493 229.867 16.9372C229.674 16.6185 229.406 16.3463 229.06 16.1206C228.722 15.8882 228.31 15.709 227.825 15.5829C227.347 15.4567 226.803 15.3936 226.192 15.3936C225.86 15.3936 225.495 15.4136 225.097 15.4534C224.698 15.4932 224.287 15.553 223.862 15.6326C223.437 15.7123 223.015 15.8119 222.597 15.9314C222.186 16.0509 221.801 16.1936 221.442 16.3596L220.546 13.9397C220.991 13.7804 221.465 13.6343 221.97 13.5015C222.481 13.3687 223.002 13.2559 223.533 13.1629C224.064 13.0633 224.596 12.987 225.127 12.9339C225.658 12.8808 226.172 12.8542 226.67 12.8542C228.868 12.8542 230.501 13.4152 231.57 14.5372C232.639 15.6592 233.173 17.3787 233.173 19.6957V24.8145H230.225V23.7091C229.92 23.8883 229.585 24.0576 229.22 24.2169C228.861 24.3763 228.469 24.5157 228.045 24.6352C227.62 24.7547 227.162 24.8476 226.67 24.914C226.186 24.9871 225.671 25.0236 225.127 25.0236C224.21 25.0236 223.404 24.924 222.707 24.7248C222.016 24.5257 221.439 24.2501 220.974 23.8983C220.509 23.5464 220.157 23.1348 219.918 22.6634C219.686 22.1854 219.57 21.6675 219.57 21.1099ZM222.677 21.0103C222.677 21.2028 222.727 21.3887 222.826 21.568C222.926 21.7406 223.085 21.8966 223.304 22.036C223.523 22.1688 223.802 22.2783 224.141 22.3646C224.486 22.4443 224.901 22.4841 225.386 22.4841C225.903 22.4841 226.405 22.4377 226.889 22.3447C227.374 22.2518 227.825 22.129 228.244 21.9763C228.662 21.8236 229.04 21.6476 229.379 21.4485C229.718 21.2493 230 21.0435 230.225 20.831V20.3132C229.774 20.187 229.326 20.0808 228.881 19.9945C228.443 19.9082 228.021 19.8418 227.616 19.7953C227.218 19.7422 226.84 19.7057 226.481 19.6858C226.129 19.6659 225.82 19.6559 225.555 19.6559C225.004 19.6559 224.546 19.6924 224.181 19.7655C223.815 19.8385 223.52 19.9381 223.294 20.0642C223.069 20.1837 222.909 20.3265 222.816 20.4924C222.723 20.6584 222.677 20.831 222.677 21.0103Z" fill="#EB7800"/>
</svg>
