<svg width="57" height="56" viewBox="0 0 57 56" fill="none" xmlns="http://www.w3.org/2000/svg">
<rect x="0.833374" y="0.5" width="55" height="55" rx="27.5" fill="white"/>
<rect x="0.833374" y="0.5" width="55" height="55" rx="27.5" stroke="#F2F2F2"/>
<path d="M40.44 23.4404V32.5603C40.44 34.0537 39.64 35.4404 38.3467 36.2004L30.4267 40.7737C29.1334 41.5204 27.5334 41.5204 26.2267 40.7737L18.3067 36.2004C17.0134 35.4537 16.2134 34.067 16.2134 32.5603V23.4404C16.2134 21.947 17.0134 20.5603 18.3067 19.8003L26.2267 15.227C27.52 14.4803 29.12 14.4803 30.4267 15.227L38.3467 19.8003C39.64 20.5603 40.44 21.9337 40.44 23.4404Z" stroke="#005F61" stroke-width="1.5" stroke-linecap="round" stroke-linejoin="round"/>
<path d="M28.3334 26.6664C30.0492 26.6664 31.4401 25.2755 31.4401 23.5597C31.4401 21.844 30.0492 20.4531 28.3334 20.4531C26.6176 20.4531 25.2267 21.844 25.2267 23.5597C25.2267 25.2755 26.6176 26.6664 28.3334 26.6664Z" stroke="#005F61" stroke-width="1.5" stroke-linecap="round" stroke-linejoin="round"/>
<path d="M33.6667 34.2128C33.6667 31.8128 31.2801 29.8662 28.3334 29.8662C25.3867 29.8662 23.0001 31.8128 23.0001 34.2128" stroke="#005F61" stroke-width="1.5" stroke-linecap="round" stroke-linejoin="round"/>
</svg>
