<svg width="88" height="88" viewBox="0 0 88 88" fill="none" xmlns="http://www.w3.org/2000/svg">
<rect width="88" height="88" rx="44" fill="#EAFAF1"/>
<path d="M60.6664 42.4667V44C60.6643 47.594 59.5005 51.0911 57.3486 53.9697C55.1966 56.8483 52.1718 58.9541 48.7253 59.9732C45.2787 60.9922 41.5951 60.8698 38.2238 59.6243C34.8525 58.3788 31.9741 56.0768 30.0179 53.0618C28.0618 50.0467 27.1327 46.4801 27.3691 42.8939C27.6056 39.3076 28.995 35.8939 31.3301 33.1618C33.6653 30.4297 36.821 28.5256 40.3267 27.7336C43.8323 26.9415 47.5001 27.3039 50.783 28.7667" stroke="#1E854A" stroke-width="2" stroke-linecap="round" stroke-linejoin="round"/>
<path d="M60.6667 30.6667L44 47.35L39 42.35" stroke="#1E854A" stroke-width="2" stroke-linecap="round" stroke-linejoin="round"/>
</svg>
