<svg width="56" height="56" viewBox="0 0 56 56" fill="none" xmlns="http://www.w3.org/2000/svg">
<rect x="0.5" y="0.5" width="55" height="55" rx="27.5" fill="white"/>
<rect x="0.5" y="0.5" width="55" height="55" rx="27.5" stroke="#F2F2F2"/>
<path d="M24 41.3337H32C38.6667 41.3337 41.3333 38.667 41.3333 32.0003V24.0003C41.3333 17.3337 38.6667 14.667 32 14.667H24C17.3333 14.667 14.6667 17.3337 14.6667 24.0003V32.0003C14.6667 38.667 17.3333 41.3337 24 41.3337Z" stroke="#1367D8" stroke-width="1.5" stroke-linecap="round" stroke-linejoin="round"/>
<path d="M34.6667 15.2529V28.5596C34.6667 31.1863 32.7867 32.2129 30.48 30.8263L28.72 29.7729C28.32 29.5329 27.68 29.5329 27.28 29.7729L25.52 30.8263C23.2133 32.1996 21.3333 31.1863 21.3333 28.5596V15.2529" stroke="#1367D8" stroke-width="1.5" stroke-linecap="round" stroke-linejoin="round"/>
<path d="M24 41.3337H32C38.6667 41.3337 41.3333 38.667 41.3333 32.0003V24.0003C41.3333 17.3337 38.6667 14.667 32 14.667H24C17.3333 14.667 14.6667 17.3337 14.6667 24.0003V32.0003C14.6667 38.667 17.3333 41.3337 24 41.3337Z" stroke="#1367D8" stroke-width="1.5" stroke-linecap="round" stroke-linejoin="round"/>
<path d="M34.6667 15.2529V28.5596C34.6667 31.1863 32.7867 32.2129 30.48 30.8263L28.72 29.7729C28.32 29.5329 27.68 29.5329 27.28 29.7729L25.52 30.8263C23.2133 32.1996 21.3333 31.1863 21.3333 28.5596V15.2529" stroke="#1367D8" stroke-width="1.5" stroke-linecap="round" stroke-linejoin="round"/>
</svg>
