<svg width="211" height="66" viewBox="0 0 211 66" fill="none" xmlns="http://www.w3.org/2000/svg">
<path d="M208.896 20.15C175.01 11.894 170.837 10.5314 133.127 5.91491C116.199 3.84257 98.5105 2.47026 80.3443 2.70083C54.1127 3.03377 26.5521 5.14143 10.0679 19.8109C-3.72238 32.083 3.057 44.0015 17.3473 52.0203C25.4676 56.577 36.2413 59.992 48.0505 61.8424C72.0669 65.6057 110.665 63.4859 136.746 60.1486C150.818 58.3481 182.457 52.5836 195.229 45.3495C199.745 42.7917 201.945 39.2616 203.136 36.0586C205.778 28.9532 200.759 21.7892 196.129 16.075C192.082 11.0788 188.339 7.35373 180.48 4.1366" stroke="#008C8F" stroke-width="4" stroke-linecap="round"/>
</svg>
